<svg width="183" height="183" viewBox="0 0 183 183" fill="none" xmlns="http://www.w3.org/2000/svg">
<rect width="183" height="183" rx="91.5" fill="white"/>
<path d="M52.9411 78.5594V94.9701C52.9411 104.553 58.6908 109.225 70.1903 109.225V124.797C48.0299 124.797 36.1711 113.776 36.1711 94.9701V78.5594H23.9529V71.8514L46.2331 49.691H52.9411V63.1071H70.1903V78.5594H52.9411ZM155.239 123H140.386L138.709 115.094C132.6 121.203 123.855 124.797 113.673 124.797C93.789 124.797 78.8158 111.261 78.8158 93.1733C78.8158 74.8461 93.6692 61.3103 113.673 61.3103C123.736 61.3103 132.6 64.7841 138.709 71.0129L140.386 63.1071H155.239V123ZM95.5858 93.1733C95.5858 102.876 104.69 109.943 117.267 109.943C129.964 109.943 138.469 103.116 138.469 93.1733C138.469 83.1113 129.845 76.0439 117.267 76.0439C104.69 76.0439 95.5858 83.2311 95.5858 93.1733Z" fill="#244ECC"/>
</svg>
