<svg width="949" height="251" viewBox="0 0 949 251" fill="none" xmlns="http://www.w3.org/2000/svg">
<path d="M47.1211 89.4294V112.904C47.1211 126.612 55.3458 133.295 71.7954 133.295V155.57C40.0957 155.57 23.1322 139.806 23.1322 112.904V89.4294H5.65453V79.8338L37.5255 48.1342H47.1211V67.3253H71.7954V89.4294H47.1211ZM193.455 153H172.207L169.809 141.691C161.07 150.43 148.561 155.57 133.997 155.57C105.553 155.57 84.1339 136.208 84.1339 110.334C84.1339 84.1176 105.381 64.7551 133.997 64.7551C148.39 64.7551 161.07 69.7242 169.809 78.6344L172.207 67.3253H193.455V153ZM108.123 110.334C108.123 124.213 121.145 134.323 139.137 134.323C157.3 134.323 169.466 124.556 169.466 110.334C169.466 95.9407 157.129 85.8311 139.137 85.8311C121.145 85.8311 108.123 96.112 108.123 110.334ZM213.734 77.4349L217.333 32.8841H242.35L233.782 77.4349H213.734Z" fill="#244ECC"/>
<path d="M359.282 153H338.035L335.636 141.691C326.897 150.43 314.389 155.57 299.824 155.57C271.38 155.57 249.961 136.208 249.961 110.334C249.961 84.1176 271.209 64.7551 299.824 64.7551C314.046 64.7551 326.554 69.7242 335.293 78.2917V33.0555H359.282V153ZM273.95 110.334C273.95 124.213 286.973 134.323 304.964 134.323C323.127 134.323 335.293 124.556 335.293 110.334C335.293 95.9407 322.956 85.8311 304.964 85.8311C286.973 85.8311 273.95 96.112 273.95 110.334ZM485.284 153H464.037L461.638 141.691C452.899 150.43 440.391 155.57 425.826 155.57C397.382 155.57 375.963 136.208 375.963 110.334C375.963 84.1176 397.211 64.7551 425.826 64.7551C440.219 64.7551 452.899 69.7242 461.638 78.6344L464.037 67.3253H485.284V153ZM399.952 110.334C399.952 124.213 412.975 134.323 430.966 134.323C449.129 134.323 461.295 124.556 461.295 110.334C461.295 95.9407 448.958 85.8311 430.966 85.8311C412.975 85.8311 399.952 96.112 399.952 110.334ZM530.923 141.862L528.696 153H507.277V33.0555H531.266V78.1203C540.005 69.5529 552.342 64.7551 566.564 64.7551C595.179 64.7551 616.427 84.1176 616.427 110.334C616.427 136.208 595.008 155.57 566.564 155.57C552.171 155.57 539.662 150.601 530.923 141.862ZM592.438 110.334C592.438 96.112 579.758 85.8311 561.423 85.8311C543.432 85.8311 531.266 95.9407 531.266 110.334C531.266 124.556 543.432 134.323 561.423 134.323C579.415 134.323 592.438 124.213 592.438 110.334ZM656.925 141.862L654.698 153H633.279V33.0555H657.268V78.1203C666.007 69.5529 678.344 64.7551 692.566 64.7551C721.181 64.7551 742.429 84.1176 742.429 110.334C742.429 136.208 721.01 155.57 692.566 155.57C678.173 155.57 665.664 150.601 656.925 141.862ZM718.44 110.334C718.44 96.112 705.76 85.8311 687.425 85.8311C669.434 85.8311 657.268 95.9407 657.268 110.334C657.268 124.556 669.434 134.323 687.425 134.323C705.417 134.323 718.44 124.213 718.44 110.334ZM835.017 107.25V67.3253H859.006V153H837.416L835.189 138.778C827.649 149.23 816.34 155.57 802.975 155.57C777.273 155.57 759.281 135.694 759.281 107.25V67.3253H783.27V107.25C783.27 122.671 794.065 133.295 809.315 133.295C824.394 133.295 835.017 122.5 835.017 107.25ZM945.025 64.7551V90.1148C919.494 90.1148 904.587 104.679 904.587 128.668V153H880.598V67.3253H902.016L904.587 89.6007C912.469 74.3507 926.691 64.7551 945.025 64.7551Z" fill="black"/>
<path d="M231.044 193.633H240.348C243.487 193.633 245.842 194.475 247.412 196.16C248.982 197.845 249.767 200.314 249.767 203.569V207.532C249.767 210.786 248.982 213.256 247.412 214.94C245.842 216.625 243.487 217.467 240.348 217.467H237.361V233.836H231.044V193.633ZM240.348 211.724C241.381 211.724 242.147 211.437 242.645 210.863C243.181 210.288 243.449 209.312 243.449 207.934V203.167C243.449 201.788 243.181 200.812 242.645 200.238C242.147 199.663 241.381 199.376 240.348 199.376H237.361V211.724H240.348ZM310.63 193.633H319.992C323.246 193.633 325.62 194.399 327.113 195.93C328.606 197.423 329.353 199.74 329.353 202.879V205.349C329.353 209.523 327.975 212.164 325.218 213.275V213.39C326.749 213.849 327.822 214.787 328.434 216.204C329.085 217.62 329.411 219.516 329.411 221.89V228.954C329.411 230.102 329.449 231.041 329.525 231.768C329.602 232.457 329.793 233.146 330.1 233.836H323.667C323.438 233.185 323.284 232.572 323.208 231.998C323.131 231.423 323.093 230.39 323.093 228.896V221.545C323.093 219.707 322.787 218.425 322.174 217.697C321.6 216.97 320.585 216.606 319.13 216.606H316.948V233.836H310.63V193.633ZM319.245 210.863C320.509 210.863 321.447 210.537 322.059 209.886C322.71 209.235 323.036 208.144 323.036 206.613V203.511C323.036 202.056 322.768 201.003 322.231 200.352C321.734 199.702 320.93 199.376 319.819 199.376H316.948V210.863H319.245ZM400.358 234.41C397.257 234.41 394.883 233.529 393.236 231.768C391.59 230.007 390.767 227.518 390.767 224.302V203.167C390.767 199.95 391.59 197.462 393.236 195.7C394.883 193.939 397.257 193.059 400.358 193.059C403.459 193.059 405.833 193.939 407.48 195.7C409.126 197.462 409.949 199.95 409.949 203.167V224.302C409.949 227.518 409.126 230.007 407.48 231.768C405.833 233.529 403.459 234.41 400.358 234.41ZM400.358 228.667C402.54 228.667 403.632 227.346 403.632 224.704V202.765C403.632 200.123 402.54 198.802 400.358 198.802C398.176 198.802 397.084 200.123 397.084 202.765V224.704C397.084 227.346 398.176 228.667 400.358 228.667ZM473.147 234.065C471.999 234.065 471.022 233.989 470.218 233.836V228.092C470.831 228.245 471.52 228.322 472.286 228.322C473.549 228.322 474.487 228.016 475.1 227.403C475.713 226.752 476.019 225.776 476.019 224.474V193.633H482.336V224.302C482.336 227.595 481.571 230.045 480.039 231.653C478.546 233.261 476.249 234.065 473.147 234.065ZM544.286 193.633H561.516V199.376H550.603V210.001H559.276V215.744H550.603V228.092H561.516V233.836H544.286V193.633ZM631.484 234.41C628.46 234.41 626.143 233.548 624.535 231.825C622.965 230.102 622.18 227.671 622.18 224.532V202.937C622.18 199.797 622.965 197.366 624.535 195.643C626.143 193.92 628.46 193.059 631.484 193.059C634.509 193.059 636.806 193.92 638.376 195.643C639.984 197.366 640.788 199.797 640.788 202.937V207.187H634.815V202.535C634.815 200.046 633.762 198.802 631.657 198.802C629.551 198.802 628.498 200.046 628.498 202.535V224.991C628.498 227.441 629.551 228.667 631.657 228.667C633.762 228.667 634.815 227.441 634.815 224.991V218.846H640.788V224.532C640.788 227.671 639.984 230.102 638.376 231.825C636.806 233.548 634.509 234.41 631.484 234.41ZM706.94 199.376H700.335V193.633H719.862V199.376H713.257V233.836H706.94V199.376Z" fill="#A2A2A2"/>
</svg>
